# xmcd
#
# Track frame offsets: 
#        150
#        17224
#        35513
#        50428
#        74241
#        89212
#        104382
#        125417
#        133582
#        180906
#        197789
#
# Disc length: 3094 seconds
#
# Revision: 2
# Processed by: cddbd v1.5.2PL0 Copyright (c) Steve Scherf et al.
# Submitted via: ExactAudioCopy v1.0b3
#
DISCID=a30c140b
DTITLE=Frigg - Live
DYEAR=2007
DGENRE=Finnland
TTITLE0=Meltaus - Solberg
TTITLE1=Economy Class
TTITLE2=Jalla Jalla
TTITLE3=Tussepols
TTITLE4=Kotkanpää
TTITLE5=Vänkärin Polska
TTITLE6=Särö - Antilope Island
TTITLE7=Eliaxen Speli
TTITLE8=Kind Of Polka - Toulpagorni - Halling
TTITLE9=Polka International de Lousiane - Fatomen
TTITLE10=Lars Lenkelifot - Mäenpään Heikin Valssi
EXTD=
EXTT0=
EXTT1=
EXTT2=
EXTT3=
EXTT4=
EXTT5=
EXTT6=
EXTT7=
EXTT8=
EXTT9=
EXTT10=
PLAYORDER=
